<svg width="52" height="53" viewBox="0 0 52 53" fill="none" xmlns="http://www.w3.org/2000/svg">
<g clip-path="url(#clip0_244_436)">
<mask id="mask0_244_436" style="mask-type:luminance" maskUnits="userSpaceOnUse" x="0" y="0" width="52" height="53">
<path d="M45.7595 0.5H6.07427C2.73342 0.5 0 3.23342 0 6.57427V46.2595C0 49.6003 2.73342 52.3337 6.07427 52.3337H45.7595C49.1003 52.3337 51.8337 49.6003 51.8337 46.2595V6.57427C51.8337 3.23342 49.1003 0.5 45.7595 0.5Z" fill="white"/>
</mask>
<g mask="url(#mask0_244_436)">
<path d="M51.8337 0.5H0V52.3337H51.8337V0.5Z" fill="#B21E23"/>
<path d="M44.1386 26.4177C44.1386 36.4807 35.9799 44.6374 25.9179 44.6374C15.8558 44.6374 7.69608 36.4797 7.69507 26.4156C7.69507 16.3526 15.8518 8.19284 25.9169 8.19385C35.9799 8.19284 44.1386 16.3526 44.1386 26.4166V26.4177Z" fill="white"/>
<path d="M24.523 35.9392V29.8862H25.7621L28.9754 35.9392H33.6931L30.2136 29.4093C31.5205 28.3514 31.889 28.1347 32.6048 27.1325C33.3185 26.1292 33.6769 24.881 33.6769 23.3887C33.6769 21.8965 33.3519 20.7393 32.706 19.6986C32.0591 18.6599 31.2026 17.9158 30.1386 17.4693C29.0746 17.0209 27.2888 16.7971 24.7801 16.7971H20.2021V35.9392H24.524H24.523ZM24.523 21.0116H25.7075C26.8575 21.0116 27.6472 21.0916 28.0774 21.2526C28.5087 21.4136 28.8519 21.6768 29.109 22.0422C29.3662 22.4087 29.4937 22.84 29.4937 23.3361C29.4937 24.1723 29.2346 24.7716 28.7173 25.133C28.1999 25.4934 27.2523 25.6747 25.8775 25.6747H24.524V21.0127L24.523 21.0116Z" fill="#B21E23"/>
</g>
</g>
<defs>
<clipPath id="clip0_244_436">
<rect width="51.8337" height="51.8337" fill="white" transform="translate(0 0.5)"/>
</clipPath>
</defs>
</svg>
