<svg width="53" height="53" viewBox="0 0 53 53" fill="none" xmlns="http://www.w3.org/2000/svg">
<path d="M26.2686 13.297C18.8071 13.297 12.797 19.3071 12.797 26.7686C12.797 34.2301 18.8071 40.2402 26.2686 40.2402C33.7301 40.2402 39.7402 34.2301 39.7402 26.7686C39.7402 19.3071 33.7301 13.297 26.2686 13.297ZM26.2686 35.514C21.4494 35.514 17.5233 31.5879 17.5233 26.7686C17.5233 21.9494 21.4494 18.0233 26.2686 18.0233C31.0879 18.0233 35.014 21.9494 35.014 26.7686C35.014 31.5879 31.0692 35.514 26.2686 35.514ZM43.4244 12.7388C43.4244 14.4879 42.0102 15.8834 40.2798 15.8834C38.5493 15.8834 37.1352 14.4693 37.1352 12.7388C37.1352 11.0084 38.5493 9.59423 40.2798 9.59423C42.0102 9.59423 43.4244 11.0084 43.4244 12.7388ZM52.3372 15.9207C52.1325 11.7154 51.1835 7.99402 48.0948 4.92384C45.0246 1.85367 41.3032 0.886098 37.098 0.681419C32.7625 0.439527 19.7561 0.439527 15.4207 0.681419C11.2341 0.886098 7.49402 1.83506 4.42384 4.90524C1.33506 7.97541 0.386098 11.6968 0.181419 15.9207C-0.0604732 20.2561 -0.0604732 33.2439 0.181419 37.5793C0.386098 41.7846 1.33506 45.506 4.42384 48.5762C7.51263 51.6463 11.2154 52.6139 15.4207 52.8186C19.7561 53.0605 32.7439 53.0605 37.0793 52.8186C41.2846 52.6139 45.006 51.6649 48.0762 48.5762C51.1463 45.506 52.1139 41.7846 52.3186 37.5793C52.5605 33.2439 52.5605 20.2561 52.3186 15.9207H52.3372ZM46.7364 42.2311C45.8247 44.5198 44.057 46.3061 41.7497 47.2178C38.2888 48.5948 30.0831 48.2784 26.2686 48.2784C22.4541 48.2784 14.2298 48.5762 10.7875 47.2178C8.4988 46.3061 6.71252 44.5384 5.80077 42.2311C4.42384 38.7702 4.74016 30.5645 4.74016 26.75C4.74016 22.9355 4.44245 14.7112 5.80077 11.2689C6.71252 8.9802 8.4802 7.19391 10.7875 6.28216C14.2484 4.90524 22.4541 5.22156 26.2686 5.22156C30.0831 5.22156 38.3074 4.92384 41.7497 6.28216C44.0384 7.19391 45.8247 8.96159 46.7364 11.2689C48.1134 14.7298 47.7971 22.9355 47.7971 26.75C47.7971 30.5645 48.1134 38.7888 46.7364 42.2311Z" fill="#553219"/>
</svg>
