<svg width="52" height="53" viewBox="0 0 52 53" fill="none" xmlns="http://www.w3.org/2000/svg">
<g clip-path="url(#clip0_244_425)">
<mask id="mask0_244_425" style="mask-type:luminance" maskUnits="userSpaceOnUse" x="0" y="0" width="52" height="53">
<path d="M45.7595 0.5H6.07427C2.73342 0.5 0 3.23342 0 6.57427V46.2595C0 49.6003 2.73342 52.3337 6.07427 52.3337H45.7595C49.1003 52.3337 51.8337 49.6003 51.8337 46.2595V6.57427C51.8337 3.23342 49.1003 0.5 45.7595 0.5Z" fill="white"/>
</mask>
<g mask="url(#mask0_244_425)">
<path d="M51.8337 0.5H0V52.3337H51.8337V0.5Z" fill="#E61915"/>
<path fill-rule="evenodd" clip-rule="evenodd" d="M7.14844 17.9495C7.19501 17.5202 7.2355 17.1123 7.28815 16.7043C7.29321 16.6658 7.35395 16.6233 7.39849 16.6051C7.43899 16.5878 7.49062 16.601 7.53922 16.601H21.5647C21.5222 16.8713 21.4827 17.1234 21.4412 17.3745C21.429 17.4554 21.4007 17.5364 21.4007 17.6174C21.4017 17.827 21.2772 17.8786 21.1 17.8898C20.2658 17.9485 19.4316 18.0052 18.5994 18.072C18.0598 18.1155 17.5243 18.1763 16.9442 18.2319C18.9163 21.1446 21.1385 23.8142 23.1946 26.5851C24.8337 25.1941 26.4747 23.8132 28.0955 22.41C28.4782 22.08 28.7961 21.6791 29.1292 21.2974C29.2365 21.1739 29.2972 21.0089 29.3965 20.8338C28.8336 20.7447 28.3132 20.6546 27.7908 20.5827C27.0984 20.4875 26.4029 20.4096 25.7094 20.3154C25.6567 20.3073 25.5818 20.2334 25.5707 20.1787C25.4856 19.7768 25.4148 19.3729 25.3378 18.9517H37.6524C37.623 19.0064 37.6028 19.052 37.5755 19.0945C37.3345 19.4579 37.0956 19.8234 36.8476 20.1818C36.802 20.2456 36.721 20.3083 36.6451 20.3245C35.5537 20.5554 34.4573 20.7659 33.369 21.0109C33.1372 21.0636 32.9236 21.2225 32.7201 21.3582C31.2936 22.3159 29.9401 23.3708 28.6301 24.4803C27.5691 25.3793 26.5466 26.3239 25.519 27.2603C25.267 27.4901 25.0665 27.7726 24.8387 28.0267C24.6373 28.2504 24.5715 28.5187 24.5715 28.8083C24.5704 29.9765 24.5715 31.1448 24.5715 32.3121V33.8955C26.0222 33.9937 27.4274 34.0898 28.8467 34.186C28.7971 34.6547 28.7516 35.0911 28.708 35.5294C28.6959 35.6519 28.6038 35.6216 28.5349 35.6205C27.9386 35.6114 27.3444 35.5932 26.7481 35.5922C24.7901 35.5882 22.8312 35.5841 20.8743 35.5942C19.8305 35.6003 18.7877 35.6408 17.746 35.661C16.9726 35.6772 16.2011 35.6843 15.4287 35.6945C15.3943 35.6945 15.3608 35.6884 15.2981 35.6833C15.3527 35.2277 15.4074 34.7813 15.4641 34.2994C15.9025 34.2994 16.3256 34.3217 16.7468 34.2933C17.4099 34.2498 18.069 34.1566 18.6946 33.9137C19.1664 33.7304 19.545 33.4399 19.5349 32.6927C19.5146 31.3544 19.5258 30.015 19.5308 28.6756C19.5318 28.5025 19.4974 28.3517 19.3982 28.213C18.8961 27.5154 18.4081 26.8027 17.8877 26.1204C16.3145 24.0632 14.6846 22.0516 12.9534 20.1251C12.5758 19.7039 12.1678 19.3111 11.7831 18.8961C11.5644 18.6592 11.3022 18.5367 10.9864 18.4952C10.0307 18.3696 9.076 18.235 8.12032 18.1013C7.80243 18.0568 7.48455 18.0031 7.15451 17.9505L7.14844 17.9495Z" fill="white"/>
<path fill-rule="evenodd" clip-rule="evenodd" d="M35.561 30.7155C36.8184 26.6063 38.0727 22.5132 39.3342 18.3918C41.12 18.9385 42.8896 19.4812 44.6856 20.0309C44.5945 20.1827 44.5186 20.3123 44.4416 20.4419C42.9767 22.9151 41.5098 25.3864 40.0469 27.8606C39.3716 29.0016 38.6994 30.1445 38.0333 31.2906C37.9614 31.4141 37.9006 31.4475 37.7579 31.4019C37.0806 31.1853 36.4003 30.9818 35.719 30.7732C35.6744 30.7591 35.6319 30.7418 35.561 30.7165V30.7155Z" fill="white"/>
<path fill-rule="evenodd" clip-rule="evenodd" d="M37.2908 33.6754C37.2736 33.723 37.2615 33.7615 37.2453 33.7979C36.8879 34.6109 36.5305 35.4228 36.1721 36.2367C35.1243 35.93 34.0866 35.6263 33.0317 35.3175C33.0945 35.1697 33.1573 35.0199 33.2231 34.87C33.5177 34.1907 33.8153 33.5114 34.1069 32.8311C34.1494 32.7339 34.1848 32.6711 34.3104 32.7207C35.263 33.0943 36.2359 33.4001 37.2321 33.6369C37.2473 33.641 37.2615 33.6552 37.2918 33.6744L37.2908 33.6754Z" fill="white"/>
</g>
</g>
<defs>
<clipPath id="clip0_244_425">
<rect width="51.8337" height="51.8337" fill="white" transform="translate(0 0.5)"/>
</clipPath>
</defs>
</svg>
