<svg width="53" height="53" viewBox="0 0 53 53" fill="none" xmlns="http://www.w3.org/2000/svg">
<g clip-path="url(#clip0_241_217)">
<path d="M31.8983 20.6853V29.0129C31.8983 29.2302 31.7353 29.3931 31.5181 29.3931H30.1784C30.0517 29.3931 29.925 29.3207 29.8707 29.2483L26.0509 24.0888V29.031C26.0509 29.2483 25.8879 29.4112 25.6707 29.4112H24.331C24.1138 29.4112 23.9509 29.2483 23.9509 29.031V20.7034C23.9509 20.4862 24.1138 20.3233 24.331 20.3233H25.6526C25.7612 20.3233 25.906 20.3776 25.9603 20.4862L29.7802 25.6457V20.7034C29.7802 20.4862 29.9431 20.3233 30.1603 20.3233H31.5C31.7172 20.3233 31.8802 20.4862 31.8802 20.6853H31.8983ZM22.2853 20.3052H20.9457C20.7284 20.3052 20.5655 20.4681 20.5655 20.6853V29.0129C20.5655 29.2302 20.7284 29.3931 20.9457 29.3931H22.2853C22.5026 29.3931 22.6655 29.2302 22.6655 29.0129V20.6853C22.6655 20.4862 22.5026 20.3052 22.2853 20.3052ZM19.0629 27.2931H15.4241V20.6853C15.4241 20.4681 15.2612 20.3052 15.044 20.3052H13.7043C13.4871 20.3052 13.3241 20.4681 13.3241 20.6853V29.0129C13.3241 29.1216 13.3603 29.194 13.4328 29.2664C13.5052 29.3207 13.5776 29.375 13.6862 29.375H19.0448C19.2621 29.375 19.425 29.2121 19.425 28.9948V27.6552C19.425 27.456 19.2621 27.275 19.0629 27.275V27.2931ZM38.9224 20.3052H33.5638C33.3647 20.3052 33.1836 20.4681 33.1836 20.6853V29.0129C33.1836 29.2121 33.3466 29.3931 33.5638 29.3931H38.9224C39.1397 29.3931 39.3026 29.2302 39.3026 29.0129V27.6733C39.3026 27.456 39.1397 27.2931 38.9224 27.2931H35.2836V25.881H38.9224C39.1397 25.881 39.3026 25.7181 39.3026 25.5009V24.1612C39.3026 23.944 39.1397 23.781 38.9224 23.781H35.2836V22.369H38.9224C39.1397 22.369 39.3026 22.206 39.3026 21.9888V20.6491C39.3026 20.45 39.1216 20.269 38.9224 20.269V20.3052ZM52.5 10.0767V43.5138C52.5 48.7638 48.1914 53.0181 42.9233 53H9.48621C4.23621 53 0 48.6733 0 43.4233V9.98621C0 4.73621 4.32672 0.5 9.57672 0.5H43.0138C48.2638 0.5 52.5181 4.80862 52.5 10.0767ZM45.2767 24.4509C45.2767 15.8879 36.6957 8.93621 26.1595 8.93621C15.6233 8.93621 7.06035 15.8879 7.06035 24.4509C7.06035 32.1086 13.8491 38.5353 23.0457 39.7483C25.2905 40.2371 25.019 41.0517 24.5302 44.0569C24.4397 44.5457 24.15 45.9397 26.1776 45.0888C28.2233 44.2379 37.1845 38.6078 41.2034 33.9914C43.9733 30.95 45.2948 27.8543 45.2948 24.4328L45.2767 24.4509Z" fill="#553219"/>
</g>
<defs>
<clipPath id="clip0_241_217">
<rect width="52.5" height="52.5" fill="white" transform="translate(0 0.5)"/>
</clipPath>
</defs>
</svg>
